<?xml version="1.0" encoding="UTF-8" standalone="no"?>
<svg
   xmlns:dc="http://purl.org/dc/elements/1.1/"
   xmlns:cc="http://creativecommons.org/ns#"
   xmlns:rdf="http://www.w3.org/1999/02/22-rdf-syntax-ns#"
   xmlns:svg="http://www.w3.org/2000/svg"
   xmlns="http://www.w3.org/2000/svg"
   xmlns:sodipodi="http://sodipodi.sourceforge.net/DTD/sodipodi-0.dtd"
   xmlns:inkscape="http://www.inkscape.org/namespaces/inkscape"
   viewBox="0 0 393.73236 235.99999"
   height="236"
   width="393.73236"
   xml:space="preserve"
   version="1.1"
   id="svg2"
   inkscape:version="0.48.4 r9939"
   sodipodi:docname="Dominos_RecruitmentBrand_Lockup_BlueTypeRedDots (4).svg"><sodipodi:namedview
     pagecolor="#ffffff"
     bordercolor="#666666"
     borderopacity="1"
     objecttolerance="10"
     gridtolerance="10"
     guidetolerance="10"
     inkscape:pageopacity="0"
     inkscape:pageshadow="2"
     inkscape:window-width="1317"
     inkscape:window-height="744"
     id="namedview103"
     showgrid="false"
     inkscape:zoom="12.784491"
     inkscape:cx="210.14645"
     inkscape:cy="227.16018"
     inkscape:window-x="1969"
     inkscape:window-y="24"
     inkscape:window-maximized="1"
     inkscape:current-layer="svg2"
     fit-margin-top="0"
     fit-margin-left="0"
     fit-margin-right="0"
     fit-margin-bottom="0" /><metadata
     id="metadata8"><rdf:RDF><cc:Work
         rdf:about=""><dc:format>image/svg+xml</dc:format><dc:type
           rdf:resource="http://purl.org/dc/dcmitype/StillImage" /></cc:Work></rdf:RDF></metadata><defs
     id="defs6" /><g
     transform="matrix(1.25,0,0,-1.25,-15.222625,263.26844)"
     id="g10"><g
       transform="scale(0.1,0.1)"
       id="g12"><path
         id="path14"
         style="fill:#0573ac;fill-opacity:1;fill-rule:nonzero;stroke:none"
         d="m 151.773,584.898 0,-49.738 9.29,0 c 12.617,0 18.8,4.75 18.8,25.461 0,19.52 -6.183,24.277 -18.8,24.277 l -9.29,0 z m -29.992,26.903 41.657,0 c 32.613,0 46.421,-16.903 46.421,-50.942 0,-35.699 -13.808,-52.609 -46.421,-52.609 l -11.665,0 0,-69.27 -29.992,0 0,172.821"
         inkscape:connector-curvature="0" /><path
         id="path16"
         style="fill:#0573ac;fill-opacity:1;fill-rule:nonzero;stroke:none"
         d="m 265.293,480.641 c 0,-12.61 4.762,-17.379 13.805,-17.379 9.519,0 14.289,4.769 14.289,17.379 l 0,89.257 c 0,12.383 -4.77,17.383 -14.289,17.383 -9.043,0 -13.805,-5 -13.805,-17.383 l 0,-89.257 z m 13.805,-44.039 c -30.942,0 -43.797,16.91 -43.797,44.277 l 0,89.019 c 0,27.372 12.855,44.043 43.797,44.043 31.187,0 44.277,-16.671 44.277,-44.043 l 0,-89.019 c 0,-27.367 -13.09,-44.277 -44.277,-44.277"
         inkscape:connector-curvature="0" /><path
         id="path18"
         style="fill:#0573ac;fill-opacity:1;fill-rule:nonzero;stroke:none"
         d="m 379.289,492.539 0,-11.66 c 0,-12.617 5.234,-17.367 14.754,-17.367 9.762,0 15.234,5.457 15.234,18.078 0,14.519 -11.664,24.281 -23.324,33.57 -16.187,12.852 -34.758,28.328 -34.758,57.121 0,25.707 17.621,41.66 42.848,41.66 29.52,0 42.848,-16.671 42.848,-44.043 l 0,-8.078 -29.989,0 0,8.078 c 0,12.383 -4.523,17.383 -12.621,17.383 -8.566,0 -13.09,-5.242 -13.09,-15 0,-14.519 13.09,-25.23 24.52,-34.043 16.656,-12.847 33.562,-27.609 33.562,-56.398 0,-28.578 -18.57,-45.238 -44.992,-45.238 -30.945,0 -44.988,16.91 -44.988,44.277 l 0,11.66 29.996,0"
         inkscape:connector-curvature="0" /><path
         id="path20"
         style="fill:#0573ac;fill-opacity:1;fill-rule:nonzero;stroke:none"
         d="m 489.945,492.539 0,-11.66 c 0,-12.617 5.239,-17.367 14.758,-17.367 9.762,0 15.235,5.457 15.235,18.078 0,14.519 -11.661,24.281 -23.325,33.57 -16.187,12.852 -34.758,28.328 -34.758,57.121 0,25.707 17.618,41.66 42.848,41.66 29.516,0 42.848,-16.671 42.848,-44.043 l 0,-8.078 -29.992,0 0,8.078 c 0,12.383 -4.528,17.383 -12.618,17.383 -8.57,0 -13.089,-5.242 -13.089,-15 0,-14.519 13.089,-25.23 24.515,-34.043 16.664,-12.847 33.567,-27.609 33.567,-56.398 0,-28.578 -18.571,-45.238 -44.993,-45.238 -30.941,0 -44.988,16.91 -44.988,44.277 l 0,11.66 29.992,0"
         inkscape:connector-curvature="0" /><path
         id="path22"
         style="fill:#0573ac;fill-opacity:1;fill-rule:nonzero;stroke:none"
         d="m 578.469,438.98 29.7539,0 0,172.82 -29.7539,0 0,-172.82 z"
         inkscape:connector-curvature="0" /><path
         id="path24"
         style="fill:#0573ac;fill-opacity:1;fill-rule:nonzero;stroke:none"
         d="m 674.613,518.012 0,-53.793 10.95,0 c 13.808,0 20.468,6.191 20.468,26.179 0,21.661 -7.379,27.614 -21.422,27.614 l -9.996,0 z m 0,68.547 0,-43.321 9.043,0 c 11.907,0 18.805,5.711 18.805,22.852 0,14.051 -5.473,20.469 -16.418,20.469 l -11.43,0 z m -29.992,25.242 43.559,0 c 31.179,0 44.277,-17.621 44.277,-44.992 0,-16.661 -6.426,-29.039 -16.902,-35.231 12.617,-6.418 20.472,-20.469 20.472,-40.949 0,-34.27 -13.332,-51.649 -45.23,-51.649 l -46.176,0 0,172.821"
         inkscape:connector-curvature="0" /><path
         id="path26"
         style="fill:#0573ac;fill-opacity:1;fill-rule:nonzero;stroke:none"
         d="m 767.656,438.98 29.7578,0 0,172.82 -29.7578,0 0,-172.82 z"
         inkscape:connector-curvature="0" /><path
         id="path28"
         style="fill:#0573ac;fill-opacity:1;fill-rule:nonzero;stroke:none"
         d="m 833.816,611.801 29.989,0 0,-145.922 47.605,0 0,-26.899 -77.594,0 0,172.821"
         inkscape:connector-curvature="0" /><path
         id="path30"
         style="fill:#0573ac;fill-opacity:1;fill-rule:nonzero;stroke:none"
         d="m 938.055,438.98 29.7539,0 0,172.82 -29.7539,0 0,-172.82 z"
         inkscape:connector-curvature="0" /><path
         id="path32"
         style="fill:#0573ac;fill-opacity:1;fill-rule:nonzero;stroke:none"
         d="m 992.301,611.801 87.839,0 0,-26.903 -29.04,0 0,-145.918 -29.76,0 0,145.918 -29.039,0 0,26.903"
         inkscape:connector-curvature="0" /><path
         id="path34"
         style="fill:#0573ac;fill-opacity:1;fill-rule:nonzero;stroke:none"
         d="m 1104.63,438.98 29.7617,0 0,172.82 -29.7617,0 0,-172.82 z"
         inkscape:connector-curvature="0" /><path
         id="path36"
         style="fill:#0573ac;fill-opacity:1;fill-rule:nonzero;stroke:none"
         d="m 1170.79,611.801 75.22,0 0,-26.903 -45.22,0 0,-41.41 37.37,0 0,-26.91 -37.37,0 0,-50.699 47.6,0 0,-26.899 -77.6,0 0,172.821"
         inkscape:connector-curvature="0" /><path
         id="path38"
         style="fill:#0573ac;fill-opacity:1;fill-rule:nonzero;stroke:none"
         d="m 1299.78,492.539 0,-11.66 c 0,-12.617 5.24,-17.367 14.76,-17.367 9.76,0 15.23,5.457 15.23,18.078 0,14.519 -11.66,24.281 -23.32,33.57 -16.19,12.852 -34.76,28.328 -34.76,57.121 0,25.707 17.62,41.66 42.85,41.66 29.51,0 42.84,-16.671 42.84,-44.043 l 0,-8.078 -29.99,0 0,8.078 c 0,12.383 -4.52,17.383 -12.61,17.383 -8.57,0 -13.09,-5.242 -13.09,-15 0,-14.519 13.09,-25.23 24.51,-34.043 16.67,-12.847 33.57,-27.609 33.57,-56.398 0,-28.578 -18.57,-45.238 -44.99,-45.238 -30.95,0 -44.99,16.91 -44.99,44.277 l 0,11.66 29.99,0"
         inkscape:connector-curvature="0" /><path
         id="path40"
         style="fill:#0573ac;fill-opacity:1;fill-rule:nonzero;stroke:none"
         d="m 1384.97,467.781 28.33,0 0,-28.801 -12.62,-31.89 -14.76,0 10,31.89 -10.95,0 0,28.801"
         inkscape:connector-curvature="0" /><path
         id="path42"
         style="fill:#0573ac;fill-opacity:1;fill-rule:nonzero;stroke:none"
         d="m 1493.01,611.801 87.84,0 0,-26.903 -29.04,0 0,-145.918 -29.76,0 0,145.918 -29.04,0 0,26.903"
         inkscape:connector-curvature="0" /><path
         id="path44"
         style="fill:#0573ac;fill-opacity:1;fill-rule:nonzero;stroke:none"
         d="m 1631.76,480.641 c 0,-12.61 4.76,-17.379 13.8,-17.379 9.52,0 14.29,4.769 14.29,17.379 l 0,89.257 c 0,12.383 -4.77,17.383 -14.29,17.383 -9.04,0 -13.8,-5 -13.8,-17.383 l 0,-89.257 z m 13.8,-44.039 c -30.94,0 -43.8,16.91 -43.8,44.277 l 0,89.019 c 0,27.372 12.86,44.043 43.8,44.043 31.19,0 44.28,-16.671 44.28,-44.043 l 0,-89.019 c 0,-27.367 -13.09,-44.277 -44.28,-44.277"
         inkscape:connector-curvature="0" /><path
         id="path46"
         style="fill:#0573ac;fill-opacity:1;fill-rule:nonzero;stroke:none"
         d="m 1753.61,584.898 0,-49.738 9.28,0 c 12.61,0 18.81,4.75 18.81,25.461 0,19.52 -6.2,24.277 -18.81,24.277 l -9.28,0 z m -30,26.903 41.66,0 c 32.61,0 46.42,-16.903 46.42,-50.942 0,-35.699 -13.81,-52.609 -46.42,-52.609 l -11.66,0 0,-69.27 -30,0 0,172.821"
         inkscape:connector-curvature="0" /><path
         id="path48"
         style="fill:#0573ac;fill-opacity:1;fill-rule:nonzero;stroke:none"
         d="m 1869.74,584.898 0,-49.738 9.29,0 c 12.62,0 18.81,4.75 18.81,25.461 0,19.52 -6.19,24.277 -18.81,24.277 l -9.29,0 z m -29.99,26.903 41.66,0 c 32.61,0 46.42,-16.903 46.42,-50.942 0,-35.699 -13.81,-52.609 -46.42,-52.609 l -11.67,0 0,-69.27 -29.99,0 0,172.821"
         inkscape:connector-curvature="0" /><path
         id="path50"
         style="fill:#0573ac;fill-opacity:1;fill-rule:nonzero;stroke:none"
         d="m 1955.88,611.801 75.22,0 0,-26.903 -45.22,0 0,-41.41 37.37,0 0,-26.91 -37.37,0 0,-50.699 47.6,0 0,-26.899 -77.6,0 0,172.821"
         inkscape:connector-curvature="0" /><path
         id="path52"
         style="fill:#0573ac;fill-opacity:1;fill-rule:nonzero;stroke:none"
         d="m 2092.49,584.898 0,-119.019 11.67,0 c 10.94,0 16.41,5.48 16.41,19.519 l 0,79.981 c 0,14.039 -5.47,19.519 -16.41,19.519 l -11.67,0 z m -29.99,26.903 43.8,0 c 31.18,0 44.27,-16.903 44.27,-44.281 l 0,-84.5 c 0,-27.129 -13.09,-44.04 -44.27,-44.04 l -43.8,0 0,172.821"
         inkscape:connector-curvature="0" /><path
         id="path54"
         style="fill:#0573ac;fill-opacity:1;fill-rule:nonzero;stroke:none"
         d="m 2363.34,611.801 30.7,0 -32.37,-172.821 -30.71,0 -19.28,105.93 -19.76,-105.93 -30.47,0 -32.37,172.821 32.14,0 16.89,-119.731 19.52,119.731 29.28,0 19.52,-120.211 16.91,120.211"
         inkscape:connector-curvature="0" /><path
         id="path56"
         style="fill:#0573ac;fill-opacity:1;fill-rule:nonzero;stroke:none"
         d="m 2418.52,438.98 29.7617,0 0,172.82 -29.7617,0 0,-172.82 z"
         inkscape:connector-curvature="0" /><path
         id="path58"
         style="fill:#0573ac;fill-opacity:1;fill-rule:nonzero;stroke:none"
         d="m 2472.77,611.801 87.84,0 0,-26.903 -29.04,0 0,-145.918 -29.76,0 0,145.918 -29.04,0 0,26.903"
         inkscape:connector-curvature="0" /><path
         id="path60"
         style="fill:#0573ac;fill-opacity:1;fill-rule:nonzero;stroke:none"
         d="m 2644.85,516.578 -29.76,0 0,-77.598 -29.99,0 0,172.821 29.99,0 0,-68.313 29.76,0 0,68.313 29.99,0 0,-172.821 -29.99,0 0,77.598"
         inkscape:connector-curvature="0" /><path
         id="path62"
         style="fill:#0573ac;fill-opacity:1;fill-rule:nonzero;stroke:none"
         d="m 2797.62,584.898 0,-49.738 9.29,0 c 12.62,0 18.8,4.75 18.8,25.461 0,19.52 -6.18,24.277 -18.8,24.277 l -9.29,0 z m -29.99,26.903 41.66,0 c 32.61,0 46.42,-16.903 46.42,-50.942 0,-35.699 -13.81,-52.609 -46.42,-52.609 l -11.67,0 0,-69.27 -29.99,0 0,172.821"
         inkscape:connector-curvature="0" /><path
         id="path64"
         style="fill:#0573ac;fill-opacity:1;fill-rule:nonzero;stroke:none"
         d="m 2913.52,584.898 0,-49.738 9.29,0 c 12.62,0 18.8,4.75 18.8,25.461 0,19.52 -6.18,24.277 -18.8,24.277 l -9.29,0 z m -29.99,26.903 41.66,0 c 32.84,0 46.42,-16.903 46.42,-50.942 0,-23.089 -5.24,-37.847 -18.33,-45.941 l 23.8,-75.938 -32.13,0 -19.29,69.27 -12.14,0 0,-69.27 -29.99,0 0,172.821"
         inkscape:connector-curvature="0" /><path
         id="path66"
         style="fill:#0573ac;fill-opacity:1;fill-rule:nonzero;stroke:none"
         d="m 3005.13,438.98 29.7617,0 0,172.82 -29.7617,0 0,-172.82 z"
         inkscape:connector-curvature="0" /><path
         id="path68"
         style="fill:#0573ac;fill-opacity:1;fill-rule:nonzero;stroke:none"
         d="m 3101.29,584.898 0,-119.019 11.67,0 c 10.94,0 16.42,5.48 16.42,19.519 l 0,79.981 c 0,14.039 -5.48,19.519 -16.42,19.519 l -11.67,0 z m -30,26.903 43.8,0 c 31.19,0 44.28,-16.903 44.28,-44.281 l 0,-84.5 c 0,-27.129 -13.09,-44.04 -44.28,-44.04 l -43.8,0 0,172.821"
         inkscape:connector-curvature="0" /><path
         id="path70"
         style="fill:#0573ac;fill-opacity:1;fill-rule:nonzero;stroke:none"
         d="m 3193.37,611.801 75.23,0 0,-26.903 -45.23,0 0,-41.41 37.37,0 0,-26.91 -37.37,0 0,-50.699 47.6,0 0,-26.899 -77.6,0 0,172.821"
         inkscape:connector-curvature="0" /><path
         id="path72"
         style="fill:#e51635;fill-opacity:1;fill-rule:nonzero;stroke:none"
         d="m 140.324,218.148 c -10.523,0 -18.543,8.52 -18.543,19.051 0,10.27 8.27,19.031 18.543,19.031 10.524,0 19.539,-8.519 19.539,-19.031 0,-10.777 -8.769,-19.051 -19.539,-19.051"
         inkscape:connector-curvature="0" /><path
         id="path74"
         style="fill:#e51635;fill-opacity:1;fill-rule:nonzero;stroke:none"
         d="m 229.254,218.148 c -10.524,0 -18.539,8.52 -18.539,19.051 0,10.27 8.265,19.031 18.539,19.031 10.523,0 19.543,-8.519 19.543,-19.031 0,-10.777 -8.77,-19.051 -19.543,-19.051"
         inkscape:connector-curvature="0" /><path
         id="path76"
         style="fill:#e51635;fill-opacity:1;fill-rule:nonzero;stroke:none"
         d="m 318.18,218.148 c -10.524,0 -18.539,8.52 -18.539,19.051 0,10.27 8.265,19.031 18.539,19.031 10.523,0 19.543,-8.519 19.543,-19.031 0,-10.777 -8.774,-19.051 -19.543,-19.051"
         inkscape:connector-curvature="0" /><path
         id="path78"
         style="fill:#e51635;fill-opacity:1;fill-rule:nonzero;stroke:none"
         d="m 407.109,218.148 c -10.519,0 -18.539,8.52 -18.539,19.051 0,10.27 8.266,19.031 18.539,19.031 10.524,0 19.543,-8.519 19.543,-19.031 0,-10.777 -8.769,-19.051 -19.543,-19.051"
         inkscape:connector-curvature="0" /><path
         id="path80"
         style="fill:#e51635;fill-opacity:1;fill-rule:nonzero;stroke:none"
         d="m 495.785,218.148 c -10.519,0 -18.539,8.52 -18.539,19.051 0,10.27 8.27,19.031 18.539,19.031 10.524,0 19.543,-8.519 19.543,-19.031 0,-10.777 -8.769,-19.051 -19.543,-19.051"
         inkscape:connector-curvature="0" /><path
         id="path82"
         style="fill:#e51635;fill-opacity:1;fill-rule:nonzero;stroke:none"
         d="m 584.719,218.148 c -10.524,0 -18.539,8.52 -18.539,19.051 0,10.27 8.265,19.031 18.539,19.031 10.519,0 19.539,-8.519 19.539,-19.031 0,-10.777 -8.77,-19.051 -19.539,-19.051"
         inkscape:connector-curvature="0" /><path
         id="path84"
         style="fill:#e51635;fill-opacity:1;fill-rule:nonzero;stroke:none"
         d="m 673.648,218.148 c -10.523,0 -18.539,8.52 -18.539,19.051 0,10.27 8.266,19.031 18.539,19.031 10.524,0 19.543,-8.519 19.543,-19.031 0,-10.777 -8.769,-19.051 -19.543,-19.051"
         inkscape:connector-curvature="0" /><path
         id="path86"
         style="fill:#e51635;fill-opacity:1;fill-rule:nonzero;stroke:none"
         d="m 762.574,218.148 c -10.523,0 -18.539,8.52 -18.539,19.051 0,10.27 8.266,19.031 18.539,19.031 10.524,0 19.539,-8.519 19.539,-19.031 0,-10.777 -8.765,-19.051 -19.539,-19.051"
         inkscape:connector-curvature="0" /><path
         id="path88"
         style="fill:#e51635;fill-opacity:1;fill-rule:nonzero;stroke:none"
         d="m 851.504,218.148 c -10.52,0 -18.539,8.52 -18.539,19.051 0,10.27 8.265,19.031 18.539,19.031 10.523,0 19.543,-8.519 19.543,-19.031 0,-10.777 -8.77,-19.051 -19.543,-19.051"
         inkscape:connector-curvature="0" /><path
         id="path90"
         style="fill:#e51635;fill-opacity:1;fill-rule:nonzero;stroke:none"
         d="m 940.438,218.148 c -10.524,0 -18.543,8.52 -18.543,19.051 0,10.27 8.265,19.031 18.543,19.031 10.519,0 19.539,-8.519 19.539,-19.031 0,-10.777 -8.77,-19.051 -19.539,-19.051"
         inkscape:connector-curvature="0" /><path
         id="path92"
         style="fill:#e51635;fill-opacity:1;fill-rule:nonzero;stroke:none"
         d="m 1029.11,218.148 c -10.52,0 -18.54,8.52 -18.54,19.051 0,10.27 8.27,19.031 18.54,19.031 10.52,0 19.54,-8.519 19.54,-19.031 0,-10.777 -8.77,-19.051 -19.54,-19.051"
         inkscape:connector-curvature="0" /><path
         id="path94"
         style="fill:#e51635;fill-opacity:1;fill-rule:nonzero;stroke:none"
         d="m 1118.04,218.148 c -10.52,0 -18.54,8.52 -18.54,19.051 0,10.27 8.27,19.031 18.54,19.031 10.53,0 19.54,-8.519 19.54,-19.031 0,-10.777 -8.77,-19.051 -19.54,-19.051"
         inkscape:connector-curvature="0" /><path
         id="path96"
         style="fill:#e51635;fill-opacity:1;fill-rule:nonzero;stroke:none"
         d="m 1206.97,218.148 c -10.52,0 -18.54,8.52 -18.54,19.051 0,10.27 8.27,19.031 18.54,19.031 10.52,0 19.54,-8.519 19.54,-19.031 0,-10.777 -8.77,-19.051 -19.54,-19.051"
         inkscape:connector-curvature="0" /><path
         id="path98"
         style="fill:#e51635;fill-opacity:1;fill-rule:nonzero;stroke:none"
         d="m 1295.9,218.148 c -10.52,0 -18.54,8.52 -18.54,19.051 0,10.27 8.27,19.031 18.54,19.031 10.52,0 19.54,-8.519 19.54,-19.031 0,-10.777 -8.77,-19.051 -19.54,-19.051"
         inkscape:connector-curvature="0" /><path
         id="path100"
         style="fill:#e51635;fill-opacity:1;fill-rule:nonzero;stroke:none"
         d="m 1384.83,218.148 c -10.52,0 -18.54,8.52 -18.54,19.051 0,10.27 8.27,19.031 18.54,19.031 10.52,0 19.54,-8.519 19.54,-19.031 0,-10.777 -8.77,-19.051 -19.54,-19.051"
         inkscape:connector-curvature="0" /><path
         id="path102"
         style="fill:#e51635;fill-opacity:1;fill-rule:nonzero;stroke:none"
         d="m 1473.76,218.148 c -10.53,0 -18.54,8.52 -18.54,19.051 0,10.27 8.26,19.031 18.54,19.031 10.52,0 19.54,-8.519 19.54,-19.031 0,-10.777 -8.77,-19.051 -19.54,-19.051"
         inkscape:connector-curvature="0" /><path
         id="path104"
         style="fill:#e51635;fill-opacity:1;fill-rule:nonzero;stroke:none"
         d="m 1562.69,218.148 c -10.53,0 -18.54,8.52 -18.54,19.051 0,10.27 8.26,19.031 18.54,19.031 10.52,0 19.54,-8.519 19.54,-19.031 0,-10.777 -8.77,-19.051 -19.54,-19.051"
         inkscape:connector-curvature="0" /><path
         id="path106"
         style="fill:#e51635;fill-opacity:1;fill-rule:nonzero;stroke:none"
         d="m 1651.62,218.148 c -10.53,0 -18.54,8.52 -18.54,19.051 0,10.27 8.26,19.031 18.54,19.031 10.52,0 19.54,-8.519 19.54,-19.031 0,-10.777 -8.77,-19.051 -19.54,-19.051"
         inkscape:connector-curvature="0" /><path
         id="path108"
         style="fill:#e51635;fill-opacity:1;fill-rule:nonzero;stroke:none"
         d="m 1740.54,218.148 c -10.51,0 -18.54,8.52 -18.54,19.051 0,10.27 8.27,19.031 18.54,19.031 10.53,0 19.54,-8.519 19.54,-19.031 0,-10.777 -8.77,-19.051 -19.54,-19.051"
         inkscape:connector-curvature="0" /><path
         id="path110"
         style="fill:#e51635;fill-opacity:1;fill-rule:nonzero;stroke:none"
         d="m 1829.47,218.148 c -10.52,0 -18.54,8.52 -18.54,19.051 0,10.27 8.28,19.031 18.54,19.031 10.53,0 19.55,-8.519 19.55,-19.031 0,-10.777 -8.77,-19.051 -19.55,-19.051"
         inkscape:connector-curvature="0" /><path
         id="path112"
         style="fill:#e51635;fill-opacity:1;fill-rule:nonzero;stroke:none"
         d="m 1918.39,218.148 c -10.51,0 -18.53,8.52 -18.53,19.051 0,10.27 8.27,19.031 18.53,19.031 10.53,0 19.56,-8.519 19.56,-19.031 0,-10.777 -8.77,-19.051 -19.56,-19.051"
         inkscape:connector-curvature="0" /><path
         id="path114"
         style="fill:#e51635;fill-opacity:1;fill-rule:nonzero;stroke:none"
         d="m 2007.33,218.148 c -10.52,0 -18.53,8.52 -18.53,19.051 0,10.27 8.27,19.031 18.53,19.031 10.53,0 19.55,-8.519 19.55,-19.031 0,-10.777 -8.77,-19.051 -19.55,-19.051"
         inkscape:connector-curvature="0" /><path
         id="path116"
         style="fill:#e51635;fill-opacity:1;fill-rule:nonzero;stroke:none"
         d="m 2096.26,218.148 c -10.52,0 -18.54,8.52 -18.54,19.051 0,10.27 8.27,19.031 18.54,19.031 10.52,0 19.55,-8.519 19.55,-19.031 0,-10.777 -8.77,-19.051 -19.55,-19.051"
         inkscape:connector-curvature="0" /><path
         id="path118"
         style="fill:#e51635;fill-opacity:1;fill-rule:nonzero;stroke:none"
         d="m 2185.18,218.148 c -10.52,0 -18.53,8.52 -18.53,19.051 0,10.27 8.27,19.031 18.53,19.031 10.53,0 19.55,-8.519 19.55,-19.031 0,-10.777 -8.77,-19.051 -19.55,-19.051"
         inkscape:connector-curvature="0" /><path
         id="path120"
         style="fill:#e51635;fill-opacity:1;fill-rule:nonzero;stroke:none"
         d="m 2274.12,218.148 c -10.52,0 -18.54,8.52 -18.54,19.051 0,10.27 8.27,19.031 18.54,19.031 10.52,0 19.55,-8.519 19.55,-19.031 0,-10.777 -8.77,-19.051 -19.55,-19.051"
         inkscape:connector-curvature="0" /><path
         id="path122"
         style="fill:#e51635;fill-opacity:1;fill-rule:nonzero;stroke:none"
         d="m 2363.04,218.148 c -10.51,0 -18.53,8.52 -18.53,19.051 0,10.27 8.27,19.031 18.53,19.031 10.53,0 19.55,-8.519 19.55,-19.031 0,-10.777 -8.77,-19.051 -19.55,-19.051"
         inkscape:connector-curvature="0" /><path
         id="path124"
         style="fill:#e51635;fill-opacity:1;fill-rule:nonzero;stroke:none"
         d="m 2451.97,218.148 c -10.52,0 -18.54,8.52 -18.54,19.051 0,10.27 8.28,19.031 18.54,19.031 10.53,0 19.55,-8.519 19.55,-19.031 0,-10.777 -8.77,-19.051 -19.55,-19.051"
         inkscape:connector-curvature="0" /><path
         id="path126"
         style="fill:#e51635;fill-opacity:1;fill-rule:nonzero;stroke:none"
         d="m 2540.9,218.148 c -10.51,0 -18.53,8.52 -18.53,19.051 0,10.27 8.27,19.031 18.53,19.031 10.53,0 19.56,-8.519 19.56,-19.031 0,-10.777 -8.77,-19.051 -19.56,-19.051"
         inkscape:connector-curvature="0" /><path
         id="path128"
         style="fill:#e51635;fill-opacity:1;fill-rule:nonzero;stroke:none"
         d="m 2629.83,218.148 c -10.52,0 -18.54,8.52 -18.54,19.051 0,10.27 8.28,19.031 18.54,19.031 10.53,0 19.55,-8.519 19.55,-19.031 0,-10.777 -8.77,-19.051 -19.55,-19.051"
         inkscape:connector-curvature="0" /><path
         id="path130"
         style="fill:#e51635;fill-opacity:1;fill-rule:nonzero;stroke:none"
         d="m 2718.76,218.148 c -10.52,0 -18.54,8.52 -18.54,19.051 0,10.27 8.27,19.031 18.54,19.031 10.52,0 19.55,-8.519 19.55,-19.031 0,-10.777 -8.77,-19.051 -19.55,-19.051"
         inkscape:connector-curvature="0" /><path
         id="path132"
         style="fill:#e51635;fill-opacity:1;fill-rule:nonzero;stroke:none"
         d="m 2807.69,218.148 c -10.52,0 -18.53,8.52 -18.53,19.051 0,10.27 8.27,19.031 18.53,19.031 10.53,0 19.55,-8.519 19.55,-19.031 0,-10.777 -8.77,-19.051 -19.55,-19.051"
         inkscape:connector-curvature="0" /><path
         id="path134"
         style="fill:#e51635;fill-opacity:1;fill-rule:nonzero;stroke:none"
         d="m 2896.62,218.148 c -10.52,0 -18.54,8.52 -18.54,19.051 0,10.27 8.27,19.031 18.54,19.031 10.52,0 19.55,-8.519 19.55,-19.031 0,-10.777 -8.77,-19.051 -19.55,-19.051"
         inkscape:connector-curvature="0" /><path
         id="path136"
         style="fill:#e51635;fill-opacity:1;fill-rule:nonzero;stroke:none"
         d="m 2985.54,218.148 c -10.51,0 -18.53,8.52 -18.53,19.051 0,10.27 8.27,19.031 18.53,19.031 10.53,0 19.55,-8.519 19.55,-19.031 0,-10.777 -8.77,-19.051 -19.55,-19.051"
         inkscape:connector-curvature="0" /><path
         id="path138"
         style="fill:#e51635;fill-opacity:1;fill-rule:nonzero;stroke:none"
         d="m 3074.48,218.148 c -10.52,0 -18.54,8.52 -18.54,19.051 0,10.27 8.27,19.031 18.54,19.031 10.53,0 19.55,-8.519 19.55,-19.031 0,-10.777 -8.77,-19.051 -19.55,-19.051"
         inkscape:connector-curvature="0" /><path
         id="path140"
         style="fill:#e51635;fill-opacity:1;fill-rule:nonzero;stroke:none"
         d="m 3163.4,218.148 c -10.51,0 -18.53,8.52 -18.53,19.051 0,10.27 8.27,19.031 18.53,19.031 10.53,0 19.56,-8.519 19.56,-19.031 0,-10.777 -8.77,-19.051 -19.56,-19.051"
         inkscape:connector-curvature="0" /><path
         id="path142"
         style="fill:#e51635;fill-opacity:1;fill-rule:nonzero;stroke:none"
         d="m 3252.09,218.148 c -10.52,0 -18.54,8.52 -18.54,19.051 0,10.27 8.27,19.031 18.54,19.031 10.52,0 19.55,-8.519 19.55,-19.031 0,-10.777 -8.77,-19.051 -19.55,-19.051"
         inkscape:connector-curvature="0" /><path
         id="path144"
         style="fill:#e51635;fill-opacity:1;fill-rule:nonzero;stroke:none"
         d="m 140.324,844.43 c -10.523,0 -18.543,8.519 -18.543,19.05 0,10.27 8.27,19.04 18.543,19.04 10.524,0 19.539,-8.532 19.539,-19.04 0,-10.789 -8.769,-19.05 -19.539,-19.05"
         inkscape:connector-curvature="0" /><path
         id="path146"
         style="fill:#e51635;fill-opacity:1;fill-rule:nonzero;stroke:none"
         d="m 229.254,844.43 c -10.524,0 -18.539,8.519 -18.539,19.05 0,10.27 8.265,19.04 18.539,19.04 10.523,0 19.543,-8.532 19.543,-19.04 0,-10.789 -8.77,-19.05 -19.543,-19.05"
         inkscape:connector-curvature="0" /><path
         id="path148"
         style="fill:#e51635;fill-opacity:1;fill-rule:nonzero;stroke:none"
         d="m 318.18,844.43 c -10.524,0 -18.539,8.519 -18.539,19.05 0,10.27 8.265,19.04 18.539,19.04 10.523,0 19.543,-8.532 19.543,-19.04 0,-10.789 -8.774,-19.05 -19.543,-19.05"
         inkscape:connector-curvature="0" /><path
         id="path150"
         style="fill:#e51635;fill-opacity:1;fill-rule:nonzero;stroke:none"
         d="m 407.109,844.43 c -10.519,0 -18.539,8.519 -18.539,19.05 0,10.27 8.266,19.04 18.539,19.04 10.524,0 19.543,-8.532 19.543,-19.04 0,-10.789 -8.769,-19.05 -19.543,-19.05"
         inkscape:connector-curvature="0" /><path
         id="path152"
         style="fill:#e51635;fill-opacity:1;fill-rule:nonzero;stroke:none"
         d="m 495.785,844.43 c -10.519,0 -18.539,8.519 -18.539,19.05 0,10.27 8.27,19.04 18.539,19.04 10.524,0 19.543,-8.532 19.543,-19.04 0,-10.789 -8.769,-19.05 -19.543,-19.05"
         inkscape:connector-curvature="0" /><path
         id="path154"
         style="fill:#e51635;fill-opacity:1;fill-rule:nonzero;stroke:none"
         d="m 584.719,844.43 c -10.524,0 -18.539,8.519 -18.539,19.05 0,10.27 8.265,19.04 18.539,19.04 10.519,0 19.539,-8.532 19.539,-19.04 0,-10.789 -8.77,-19.05 -19.539,-19.05"
         inkscape:connector-curvature="0" /><path
         id="path156"
         style="fill:#e51635;fill-opacity:1;fill-rule:nonzero;stroke:none"
         d="m 673.648,844.43 c -10.523,0 -18.539,8.519 -18.539,19.05 0,10.27 8.266,19.04 18.539,19.04 10.524,0 19.543,-8.532 19.543,-19.04 0,-10.789 -8.769,-19.05 -19.543,-19.05"
         inkscape:connector-curvature="0" /><path
         id="path158"
         style="fill:#e51635;fill-opacity:1;fill-rule:nonzero;stroke:none"
         d="m 762.574,844.43 c -10.523,0 -18.539,8.519 -18.539,19.05 0,10.27 8.266,19.04 18.539,19.04 10.524,0 19.539,-8.532 19.539,-19.04 0,-10.789 -8.765,-19.05 -19.539,-19.05"
         inkscape:connector-curvature="0" /><path
         id="path160"
         style="fill:#e51635;fill-opacity:1;fill-rule:nonzero;stroke:none"
         d="m 851.504,844.43 c -10.52,0 -18.539,8.519 -18.539,19.05 0,10.27 8.265,19.04 18.539,19.04 10.523,0 19.543,-8.532 19.543,-19.04 0,-10.789 -8.77,-19.05 -19.543,-19.05"
         inkscape:connector-curvature="0" /><path
         id="path162"
         style="fill:#e51635;fill-opacity:1;fill-rule:nonzero;stroke:none"
         d="m 2540.46,844.43 c -10.52,0 -18.54,8.519 -18.54,19.05 0,10.27 8.27,19.04 18.54,19.04 10.52,0 19.55,-8.532 19.55,-19.04 0,-10.789 -8.77,-19.05 -19.55,-19.05"
         inkscape:connector-curvature="0" /><path
         id="path164"
         style="fill:#e51635;fill-opacity:1;fill-rule:nonzero;stroke:none"
         d="m 2629.38,844.43 c -10.52,0 -18.53,8.519 -18.53,19.05 0,10.27 8.27,19.04 18.53,19.04 10.53,0 19.55,-8.532 19.55,-19.04 0,-10.789 -8.77,-19.05 -19.55,-19.05"
         inkscape:connector-curvature="0" /><path
         id="path166"
         style="fill:#e51635;fill-opacity:1;fill-rule:nonzero;stroke:none"
         d="m 2718.32,844.43 c -10.52,0 -18.54,8.519 -18.54,19.05 0,10.27 8.27,19.04 18.54,19.04 10.52,0 19.55,-8.532 19.55,-19.04 0,-10.789 -8.77,-19.05 -19.55,-19.05"
         inkscape:connector-curvature="0" /><path
         id="path168"
         style="fill:#e51635;fill-opacity:1;fill-rule:nonzero;stroke:none"
         d="m 2807.24,844.43 c -10.52,0 -18.53,8.519 -18.53,19.05 0,10.27 8.27,19.04 18.53,19.04 10.53,0 19.55,-8.532 19.55,-19.04 0,-10.789 -8.77,-19.05 -19.55,-19.05"
         inkscape:connector-curvature="0" /><path
         id="path170"
         style="fill:#e51635;fill-opacity:1;fill-rule:nonzero;stroke:none"
         d="m 2896.17,844.43 c -10.52,0 -18.54,8.519 -18.54,19.05 0,10.27 8.27,19.04 18.54,19.04 10.53,0 19.55,-8.532 19.55,-19.04 0,-10.789 -8.77,-19.05 -19.55,-19.05"
         inkscape:connector-curvature="0" /><path
         id="path172"
         style="fill:#e51635;fill-opacity:1;fill-rule:nonzero;stroke:none"
         d="m 2985.1,844.43 c -10.51,0 -18.53,8.519 -18.53,19.05 0,10.27 8.27,19.04 18.53,19.04 10.53,0 19.55,-8.532 19.55,-19.04 0,-10.789 -8.77,-19.05 -19.55,-19.05"
         inkscape:connector-curvature="0" /><path
         id="path174"
         style="fill:#e51635;fill-opacity:1;fill-rule:nonzero;stroke:none"
         d="m 3074.03,844.43 c -10.52,0 -18.54,8.519 -18.54,19.05 0,10.27 8.28,19.04 18.54,19.04 10.53,0 19.55,-8.532 19.55,-19.04 0,-10.789 -8.77,-19.05 -19.55,-19.05"
         inkscape:connector-curvature="0" /><path
         id="path176"
         style="fill:#e51635;fill-opacity:1;fill-rule:nonzero;stroke:none"
         d="m 3162.96,844.43 c -10.52,0 -18.54,8.519 -18.54,19.05 0,10.27 8.27,19.04 18.54,19.04 10.52,0 19.55,-8.532 19.55,-19.04 0,-10.789 -8.77,-19.05 -19.55,-19.05"
         inkscape:connector-curvature="0" /><path
         id="path178"
         style="fill:#e51635;fill-opacity:1;fill-rule:nonzero;stroke:none"
         d="m 3251.64,844.43 c -10.52,0 -18.54,8.519 -18.54,19.05 0,10.27 8.27,19.04 18.54,19.04 10.52,0 19.55,-8.532 19.55,-19.04 0,-10.789 -8.77,-19.05 -19.55,-19.05"
         inkscape:connector-curvature="0" /><path
         id="path180"
         style="fill:#0573ac;fill-opacity:1;fill-rule:nonzero;stroke:none"
         d="m 1134.23,822.84 -32.32,0 0,105.98 32.62,0 c 33.69,0 53.82,-19.73 53.82,-52.808 0,-26.41 -18.59,-53.172 -54.12,-53.172 m 0,165.172 -94.62,0 c -3.14,0 -5.67,-2.524 -5.67,-5.684 l 0,-213.019 c 0,-3.098 2.53,-5.629 5.67,-5.629 l 94.92,0 c 74.58,0 122.78,44.082 122.78,112.332 0,68.039 -48.32,112 -123.08,112"
         inkscape:connector-curvature="0" /><path
         id="path182"
         style="fill:#0573ac;fill-opacity:1;fill-rule:nonzero;stroke:none"
         d="m 1676.76,930.148 c -26.12,0 -47.35,-14.347 -56.83,-28.578 -6.94,18.961 -22.7,28.578 -46.75,28.578 -26.62,0 -46.78,-13.468 -53.82,-22.519 l 0,12.832 c 0,3.141 -2.53,5.648 -5.66,5.648 l -49.22,0 c -3.12,0 -5.65,-2.507 -5.65,-5.648 l 0,-151.152 c 0,-3.09 2.53,-5.629 5.65,-5.629 l 49.22,0 c 3.13,0 5.66,2.539 5.66,5.629 l 0,94.601 0.01,0.039 c 3.57,4.11 10.96,12.742 24.55,12.742 11.93,0 18.5,-6.472 18.5,-18.179 l 0,-89.203 c 0,-3.09 2.55,-5.629 5.66,-5.629 l 49.22,0 c 3.13,0 5.67,2.539 5.67,5.629 l 0,94.601 c 3.55,4.149 10.96,12.781 24.86,12.781 11.78,0 18.52,-6.632 18.52,-18.179 l 0,-89.203 c 0,-3.09 2.52,-5.629 5.66,-5.629 l 49.23,0 c 3.11,0 5.65,2.539 5.65,5.629 l 0,112.07 c 0,31.449 -17.79,48.769 -50.13,48.769"
         inkscape:connector-curvature="0" /><path
         id="path184"
         style="fill:#0573ac;fill-opacity:1;fill-rule:nonzero;stroke:none"
         d="m 1806.44,926.109 -49.23,0 c -3.13,0 -5.67,-2.531 -5.67,-5.648 l 0,-151.152 c 0,-3.09 2.54,-5.629 5.67,-5.629 l 49.23,0 c 3.12,0 5.67,2.539 5.67,5.629 l 0,151.152 c 0,3.117 -2.55,5.648 -5.67,5.648"
         inkscape:connector-curvature="0" /><path
         id="path186"
         style="fill:#0573ac;fill-opacity:1;fill-rule:nonzero;stroke:none"
         d="m 1783.31,1005.83 c -18.73,0 -34,-15.24 -34,-33.959 0,-18.75 15.27,-33.98 34,-33.98 18.7,0 33.97,15.23 33.97,33.98 0,18.719 -15.27,33.959 -33.97,33.959"
         inkscape:connector-curvature="0" /><path
         id="path188"
         style="fill:#0573ac;fill-opacity:1;fill-rule:nonzero;stroke:none"
         d="m 1954.1,930.148 c -31.37,0 -48.44,-14.109 -55.8,-22.519 l 0,12.832 c 0,3.141 -2.55,5.648 -5.67,5.648 l -49.22,0 c -3.11,0 -5.66,-2.507 -5.66,-5.648 l 0,-151.152 c 0,-3.09 2.55,-5.629 5.66,-5.629 l 49.22,0 c 3.12,0 5.67,2.539 5.67,5.629 l 0,94.601 c 3.91,4.449 11.25,12.781 25.88,12.781 15.64,0 23.56,-7.82 23.56,-23.179 l 0,-84.203 c 0,-3.09 2.53,-5.629 5.66,-5.629 l 49.21,0 c 3.14,0 5.66,2.539 5.66,5.629 l 0,109.711 c 0,32.019 -20.24,51.128 -54.17,51.128"
         inkscape:connector-curvature="0" /><path
         id="path190"
         style="fill:#0573ac;fill-opacity:1;fill-rule:nonzero;stroke:none"
         d="m 1354.91,817.102 c -16.16,0 -29.24,13.089 -29.24,29.296 0,16.153 13.08,29.223 29.24,29.223 16.16,0 29.27,-13.07 29.27,-29.223 0,-16.207 -13.11,-29.296 -29.27,-29.296 m 0,113.796 c -47.36,0 -85.75,-38.398 -85.75,-85.699 0,-47.41 38.39,-85.789 85.75,-85.789 47.37,0 85.75,38.379 85.75,85.789 0,47.301 -38.38,85.699 -85.75,85.699"
         inkscape:connector-curvature="0" /><path
         id="path192"
         style="fill:#0573ac;fill-opacity:1;fill-rule:nonzero;stroke:none"
         d="m 2111.97,816.84 c -16.16,0 -29.24,13.129 -29.24,29.308 0,16.122 13.08,29.211 29.24,29.211 16.18,0 29.26,-13.089 29.26,-29.211 0,-16.179 -13.08,-29.308 -29.26,-29.308 m 0,113.801 c -47.34,0 -85.73,-38.391 -85.73,-85.731 0,-47.39 38.39,-85.781 85.73,-85.781 47.36,0 85.79,38.391 85.79,85.781 0,47.34 -38.43,85.731 -85.79,85.731"
         inkscape:connector-curvature="0" /><path
         id="path194"
         style="fill:#0573ac;fill-opacity:1;fill-rule:nonzero;stroke:none"
         d="m 2245.03,978.621 c 0,0.008 0,0.02 0,0.027 -0.01,0.012 -0.01,0.02 -0.01,0.032 -0.04,0.14 -0.06,0.3 -0.1,0.441 l -0.02,-0.019 c -3.78,16.91 -22.17,29.128 -40.3,25.378 -18.31,-3.79 -30.33,-20.832 -26.78,-37.992 2.93,-14.148 15.54,-23.988 30.14,-24.886 -0.93,-5.801 -6.04,-10.973 -10.31,-13.372 -2.85,-1.601 -1.14,-4.671 -1.14,-4.671 l 3.77,-5.579 c 1.09,-1.878 2.74,-2.839 4.69,-2.031 37.55,15.379 43.96,47.41 40.06,62.672"
         inkscape:connector-curvature="0" /><path
         id="path196"
         style="fill:#0573ac;fill-opacity:1;fill-rule:nonzero;stroke:none"
         d="m 2288.68,877.789 c -0.15,6.063 7.71,8.742 17.56,8.742 19.59,0 30.75,-5.59 43.25,-13.832 1.3,-0.879 2.89,-1.148 4.43,-0.789 1.51,0.36 2.82,1.34 3.58,2.719 l 16.62,28.902 c 1.51,2.66 0.62,6.047 -2.01,7.629 -13.66,8.149 -33.66,18.68 -68.4,18.68 -50.1,0 -76.92,-23.59 -72.43,-57.481 7.88,-59.578 100.52,-39.168 99.07,-59.5 -0.32,-4.699 -8.52,-8.199 -22.71,-8.199 -18.33,0 -39.16,9.18 -52.31,17.32 -1.3,0.809 -2.9,1.051 -4.37,0.661 -1.5,-0.391 -2.75,-1.34 -3.51,-2.692 l -19.2,-32 c -1.46,-2.59 -0.71,-5.847 1.75,-7.5 18.44,-12.437 48.19,-20.808 74.04,-20.808 50.15,0 79.06,21.539 79.07,56.949 0.01,65.32 -94.02,45.058 -94.43,61.199"
         inkscape:connector-curvature="0" /><path
         id="path198"
         style="fill:#ffffff;fill-opacity:1;fill-rule:nonzero;stroke:none"
         d="m 2207.21,1812.23 -273.68,273.67 c -11.55,11.55 -26.91,17.91 -43.24,17.91 -16.34,0 -31.7,-6.36 -43.25,-17.91 l -229.51,-229.51 -381.99,-382 c -23.85,-23.85 -23.85,-62.65 0,-86.48 l 273.66,-273.73 c 11.56,-11.55 26.92,-17.91 43.25,-17.91 16.34,0 31.69,6.36 43.25,17.91 l 342.4,342.46 269.1,269.1 c 23.84,23.84 23.84,62.64 0.01,86.49"
         inkscape:connector-curvature="0" /><path
         id="path200"
         style="fill:#e51635;fill-opacity:1;fill-rule:nonzero;stroke:none"
         d="m 1947.17,1713.65 c -15.49,-15.47 -35.84,-23.2 -56.06,-23.2 -20.25,0.01 -40.56,7.73 -56.07,23.2 -15.45,15.46 -23.24,35.8 -23.24,56.05 0,20.28 7.79,40.62 23.24,56.05 15.51,15.46 35.79,23.26 56.07,23.25 20.22,0 40.57,-7.73 56.06,-23.25 15.43,-15.43 23.24,-35.77 23.24,-56.05 0,-20.23 -7.81,-40.58 -23.24,-56.05 z m 240.68,79.12 -273.67,273.67 c -13.2,13.19 -34.59,13.19 -47.78,0 l -295.9,-295.9 321.45,-321.44 295.9,295.9 c 13.19,13.19 13.19,34.57 0,47.77"
         inkscape:connector-curvature="0" /><path
         id="path202"
         style="fill:#0573ac;fill-opacity:1;fill-rule:nonzero;stroke:none"
         d="m 1612.42,1485.12 c 15.47,15.51 35.78,23.24 56.04,23.24 20.28,0 40.59,-7.73 56.04,-23.24 15.54,-15.46 23.28,-35.72 23.28,-56.05 0,-20.26 -7.74,-40.57 -23.28,-56 -15.45,-15.42 -35.76,-23.19 -56.04,-23.21 -20.27,0 -40.57,7.78 -56.04,23.21 -15.49,15.47 -23.24,35.79 -23.24,56 0,20.28 7.75,40.59 23.24,56.05 z m -120.53,-108.9 c -15.52,-15.4 -35.83,-23.13 -56.08,-23.13 -20.3,0 -40.59,7.73 -56.07,23.13 -15.5,15.44 -23.18,35.77 -23.18,56.02 0,20.29 7.72,40.6 23.18,56.12 15.48,15.45 35.77,23.17 56.07,23.18 20.25,-0.01 40.6,-7.73 56.08,-23.19 15.47,-15.51 23.17,-35.82 23.15,-56.08 0,-20.26 -7.69,-40.62 -23.15,-56.05 z m -237,78.82 c -13.19,-13.2 -13.19,-34.59 0,-47.78 l 273.67,-273.72 c 6.6,-6.6 15.24,-9.9 23.89,-9.9 8.65,0 17.3,3.3 23.89,9.9 l 295.75,295.8 -321.45,321.45 -295.75,-295.75"
         inkscape:connector-curvature="0" /><path
         id="path204"
         style="fill:#0573ac;fill-opacity:1;fill-rule:nonzero;stroke:none"
         d="m 2400.07,921.578 2.01,0 c 1.34,0 2.28,0.223 2.83,0.652 0.55,0.43 0.82,0.989 0.82,1.68 0,0.68 -0.26,1.238 -0.79,1.68 -0.52,0.43 -1.42,0.648 -2.68,0.648 l -2.19,0 0,-4.66 z m -4.64,7.902 8.34,0 c 2.36,0 4.06,-0.48 5.12,-1.429 1.06,-0.949 1.59,-2.223 1.59,-3.821 0,-1.25 -0.4,-2.332 -1.21,-3.242 -0.81,-0.918 -2.08,-1.578 -3.81,-1.988 0.71,-0.281 1.24,-0.57 1.57,-0.871 0.47,-0.43 0.97,-1.059 1.49,-1.899 0.03,-0.062 1.03,-1.851 3.01,-5.39 l -5.48,0 c -1.78,3.551 -2.98,5.672 -3.59,6.371 -0.6,0.687 -1.21,1.027 -1.82,1.027 -0.14,0 -0.33,-0.019 -0.57,-0.058 l 0,-7.34 -4.64,0 0,18.64 z m 21.97,-9.32 c 0,3.891 -1.37,7.199 -4.12,9.949 -2.75,2.75 -6.07,4.121 -9.95,4.121 -3.88,0 -7.2,-1.371 -9.94,-4.121 -2.75,-2.75 -4.13,-6.058 -4.13,-9.949 0,-3.879 1.38,-7.191 4.13,-9.941 2.74,-2.75 6.06,-4.129 9.94,-4.129 3.88,0 7.2,1.379 9.95,4.129 2.75,2.75 4.12,6.062 4.12,9.941 z m 3.38,0 c 0,-3.121 -0.78,-6.031 -2.34,-8.719 -1.56,-2.703 -3.69,-4.82 -6.38,-6.371 -2.7,-1.558 -5.61,-2.332 -8.73,-2.332 -3.1,0 -6,0.774 -8.7,2.332 -2.69,1.551 -4.82,3.668 -6.38,6.371 -1.56,2.688 -2.34,5.598 -2.34,8.719 0,3.11 0.78,6.008 2.34,8.719 1.56,2.699 3.69,4.832 6.38,6.383 2.7,1.547 5.6,2.328 8.7,2.328 3.12,0 6.03,-0.781 8.73,-2.328 2.69,-1.551 4.82,-3.684 6.38,-6.383 1.56,-2.711 2.34,-5.609 2.34,-8.719"
         inkscape:connector-curvature="0" /></g></g></svg>